<svg width="18" height="18" viewBox="0 0 18 18" fill="none" xmlns="http://www.w3.org/2000/svg">
<path fill-rule="evenodd" clip-rule="evenodd" d="M1.5 3.70588C1.5 3.31603 1.80526 3 2.18182 3H15.8182C16.1947 3 16.5 3.31603 16.5 3.70588C16.5 4.09573 16.1947 4.41176 15.8182 4.41176H2.18182C1.80526 4.41176 1.5 4.09573 1.5 3.70588ZM1.5 9C1.5 8.61015 1.80526 8.29412 2.18182 8.29412H15.8182C16.1947 8.29412 16.5 8.61015 16.5 9C16.5 9.38985 16.1947 9.70588 15.8182 9.70588H2.18182C1.80526 9.70588 1.5 9.38985 1.5 9ZM1.5 14.2941C1.5 13.9043 1.80526 13.5882 2.18182 13.5882H10.2784C10.655 13.5882 10.9602 13.9043 10.9602 14.2941C10.9602 14.684 10.655 15 10.2784 15H2.18182C1.80526 15 1.5 14.684 1.5 14.2941Z" fill="#4E4E4E"/>
</svg>
